<svg height="512pt" viewBox="0 0 512 512" width="512pt" xmlns="http://www.w3.org/2000/svg"><path d="m512 96v384c0 17.679688-14.320312 32-32 32h-448c-17.679688 0-32-14.320312-32-32v-384zm0 0" fill="#e4edfb"/><path d="m0 0h512v128h-512zm0 0" fill="#77959e"/><path d="m64 48h32v32h-32zm0 0" fill="#fff"/><path d="m128 48h32v32h-32zm0 0" fill="#fff"/><path d="m432 80h-224c-8.832031 0-16-7.167969-16-16s7.167969-16 16-16h224c8.832031 0 16 7.167969 16 16s-7.167969 16-16 16zm0 0" fill="#62808c"/><path d="m256 400c-26.464844 0-48-21.535156-48-48v-64c0-26.464844 21.535156-48 48-48s48 21.535156 48 48v16h-32v-16c0-8.816406-7.167969-16-16-16s-16 7.183594-16 16v64c0 8.816406 7.167969 16 16 16s16-7.183594 16-16v-16h32v16c0 26.464844-21.535156 48-48 48zm0 0" fill="#e76e54"/></svg>