<?xml version="1.0" encoding="iso-8859-1"?>
<!-- Generator: Adobe Illustrator 19.0.0, SVG Export Plug-In . SVG Version: 6.00 Build 0)  -->
<svg version="1.1" id="Capa_1" xmlns="http://www.w3.org/2000/svg" xmlns:xlink="http://www.w3.org/1999/xlink" x="0px" y="0px"
	 viewBox="0 0 512 512" style="enable-background:new 0 0 512 512;" xml:space="preserve">
<path style="fill:#2196F3;" d="M434.56,110.165c-2.02-2.227-4.887-3.497-7.893-3.499H85.334
	c-5.891-0.026-10.688,4.728-10.714,10.619c-0.002,0.351,0.014,0.701,0.047,1.05l32,341.333c0.413,4.379,3.471,8.055,7.701,9.259
	l149.333,42.667c0.964,0.274,1.963,0.41,2.965,0.405c1.144-0.001,2.282-0.181,3.371-0.533l128-42.667
	c4.015-1.336,6.86-4.918,7.253-9.131l32-341.333C437.57,115.35,436.579,112.384,434.56,110.165z"/>
<g>
	<path style="fill:#FAFAFA;" d="M266.667,426.667c-0.989-0.006-1.973-0.15-2.923-0.427l-74.667-21.333
		c-3.665-1.043-6.495-3.963-7.424-7.659l-10.667-42.667c-1.558-5.681,1.785-11.55,7.466-13.108
		c5.681-1.558,11.55,1.785,13.108,7.466c0.044,0.159,0.083,0.318,0.119,0.479l9.173,36.693l65.813,18.816l64.853-18.539
		l19.2-173.035H160c-5.891,0-10.667-4.776-10.667-10.667c0-5.891,4.776-10.667,10.667-10.667h202.667
		c5.891-0.036,10.695,4.711,10.731,10.602c0.002,0.414-0.019,0.827-0.065,1.238l-21.333,192c-0.484,4.3-3.518,7.882-7.68,9.067
		l-74.667,21.333C268.682,426.537,267.677,426.674,266.667,426.667z"/>
	<path style="fill:#FAFAFA;" d="M352,298.667H170.667c-5.891,0-10.667-4.776-10.667-10.667s4.776-10.667,10.667-10.667H352
		c5.891,0,10.667,4.776,10.667,10.667S357.891,298.667,352,298.667z"/>
</g>
<g>
	<path style="fill:#37474F;" d="M192,64h-42.667c-5.891,0-10.667-4.776-10.667-10.667V10.667C138.667,4.776,143.443,0,149.334,0H192
		c5.891,0,10.667,4.776,10.667,10.667S197.891,21.333,192,21.333h-32v21.333h32c5.891,0,10.667,4.776,10.667,10.667
		S197.891,64,192,64z"/>
	<path style="fill:#37474F;" d="M277.334,64h-42.667C228.776,64,224,59.224,224,53.333s4.776-10.667,10.667-10.667h16.917
		l-24.469-24.448c-4.171-4.16-4.179-10.914-0.019-15.085c2.006-2.011,4.731-3.139,7.571-3.134h42.667
		C283.225,0,288,4.776,288,10.667s-4.776,10.667-10.667,10.667h-16.917l24.448,24.448c4.171,4.16,4.179,10.914,0.019,15.085
		C282.883,62.872,280.167,63.999,277.334,64z"/>
	<path style="fill:#37474F;" d="M362.667,64H320c-5.891,0-10.667-4.776-10.667-10.667S314.109,42.667,320,42.667h16.917
		l-24.469-24.448c-4.171-4.16-4.179-10.914-0.019-15.085C314.435,1.123,317.16-0.005,320,0h42.667
		c5.891,0,10.667,4.776,10.667,10.667s-4.776,10.667-10.667,10.667H345.75l24.448,24.448c4.171,4.16,4.179,10.914,0.019,15.085
		C368.216,62.872,365.5,63.999,362.667,64z"/>
</g>
<path d="M266.667,512c-0.988,0.001-1.972-0.135-2.923-0.405l-149.333-42.667c-4.247-1.188-7.325-4.868-7.744-9.259l-32-341.333
	c-0.554-5.865,3.752-11.068,9.617-11.622c0.349-0.033,0.699-0.049,1.05-0.047h341.333c5.891-0.026,10.688,4.728,10.714,10.619
	c0.002,0.351-0.014,0.701-0.047,1.05l-32,341.333c-0.401,4.205-3.245,7.777-7.253,9.109l-128,42.667
	C268.98,511.815,267.827,512.002,266.667,512z M127.275,450.411l139.157,39.744l118.272-39.424L414.955,128H97.046L127.275,450.411z
	"/>
<path d="M266.667,426.667c-0.988,0.001-1.972-0.135-2.923-0.405l-74.667-21.333c-3.671-1.047-6.502-3.976-7.424-7.68l-10.667-42.667
	c-1.293-5.747,2.317-11.455,8.064-12.748c5.56-1.251,11.122,2.089,12.629,7.586l9.173,36.693l65.813,18.795l64.853-18.539
	l19.2-173.035H160c-5.891,0-10.667-4.776-10.667-10.667c0-5.891,4.776-10.667,10.667-10.667h202.667
	c5.891-0.036,10.695,4.711,10.731,10.602c0.002,0.414-0.019,0.827-0.065,1.238L352,395.84c-0.476,4.308-3.511,7.901-7.68,9.088
	l-74.667,21.333C268.682,426.537,267.677,426.674,266.667,426.667z"/>
<path d="M352,298.667H170.667c-5.891,0-10.667-4.776-10.667-10.667s4.776-10.667,10.667-10.667H352
	c5.891,0,10.667,4.776,10.667,10.667S357.891,298.667,352,298.667z"/>
<path d="M192,64h-42.667c-5.891,0-10.667-4.776-10.667-10.667V10.667C138.667,4.776,143.443,0,149.334,0H192
	c5.891,0,10.667,4.776,10.667,10.667S197.891,21.333,192,21.333h-32v21.333h32c5.891,0,10.667,4.776,10.667,10.667
	S197.891,64,192,64z"/>
<path d="M277.334,64h-42.667C228.776,64,224,59.224,224,53.333s4.776-10.667,10.667-10.667h16.917l-24.469-24.448
	c-4.171-4.16-4.179-10.914-0.019-15.085c2.006-2.011,4.731-3.139,7.571-3.134h42.667C283.225,0,288,4.776,288,10.667
	s-4.776,10.667-10.667,10.667h-16.917l24.448,24.448c4.171,4.16,4.179,10.914,0.019,15.085
	C282.883,62.872,280.167,63.999,277.334,64z"/>
<path d="M362.667,64H320c-5.891,0-10.667-4.776-10.667-10.667S314.109,42.667,320,42.667h16.917l-24.469-24.448
	c-4.171-4.16-4.179-10.914-0.019-15.085C314.435,1.123,317.16-0.005,320,0h42.667c5.891,0,10.667,4.776,10.667,10.667
	s-4.776,10.667-10.667,10.667H345.75l24.448,24.448c4.171,4.16,4.179,10.914,0.019,15.085C368.216,62.872,365.5,63.999,362.667,64z"
	/>
<g>
</g>
<g>
</g>
<g>
</g>
<g>
</g>
<g>
</g>
<g>
</g>
<g>
</g>
<g>
</g>
<g>
</g>
<g>
</g>
<g>
</g>
<g>
</g>
<g>
</g>
<g>
</g>
<g>
</g>
</svg>
