<?xml version="1.0" encoding="iso-8859-1"?>
<!-- Generator: Adobe Illustrator 19.0.0, SVG Export Plug-In . SVG Version: 6.00 Build 0)  -->
<svg version="1.1" id="Capa_1" xmlns="http://www.w3.org/2000/svg" xmlns:xlink="http://www.w3.org/1999/xlink" x="0px" y="0px"
	 viewBox="0 0 512.08 512.08" style="enable-background:new 0 0 512.08 512.08;" xml:space="preserve">
<path style="fill:#5C6BC0;" d="M255.942,5.361C113.905,6.046-0.683,121.746,0.003,263.783
	c0.531,109.928,70.871,207.365,175.043,242.473c12.8,2.368,17.44-5.568,17.44-12.384c0-6.112-0.192-22.4-0.352-43.712
	c-71.2,15.52-86.24-34.464-86.24-34.464c-4.671-15.519-14.739-28.855-28.384-37.6c-23.264-16,1.76-15.616,1.76-15.616
	c16.454,2.312,30.92,12.09,39.2,26.496c14.379,26.38,47.421,36.109,73.801,21.73c0.233-0.127,0.464-0.255,0.695-0.386
	c1.148-13.028,6.913-25.216,16.256-34.368c-56.832-6.496-116.48-28.512-116.48-127.008c-0.416-25.5,8.978-50.186,26.24-68.96
	c-7.796-22.183-6.881-46.498,2.56-68.032c0,0,21.504-6.912,70.4,26.336c41.965-11.521,86.259-11.521,128.224,0
	c48.864-33.248,70.4-26.336,70.4-26.336c9.441,21.534,10.356,45.849,2.56,68.032c17.187,18.805,26.499,43.489,26.016,68.96
	c0,98.72-59.84,120.448-116.864,126.816c12.367,12.637,18.698,29.984,17.376,47.616c0,34.336-0.32,62.048-0.32,70.4
	c0,6.88,4.608,14.88,17.6,12.352c134.53-45.57,206.647-191.57,161.076-326.101C462.822,76.144,365.622,6.009,255.942,5.361z"/>
<path d="M184.262,506.705c-2.372-0.016-4.739-0.241-7.072-0.672C42.868,462.36-30.617,318.066,13.056,183.744
	S201.022-24.063,335.344,19.61s207.808,187.966,164.135,322.288c-25.09,77.168-85.313,137.851-162.288,163.527
	c-9.502,2.819-19.777,0.98-27.712-4.96c-6.382-5.412-10.009-13.394-9.888-21.76v-13.472c0-12.384,0.224-31.072,0.224-52.544
	c1.277-11.862-2.644-23.696-10.752-32.448c-6.697-5.765-7.453-15.867-1.688-22.564c2.646-3.074,6.36-5.028,10.392-5.468
	c49.504-5.504,95.328-21.76,95.328-102.816c0.356-19.89-6.981-39.149-20.48-53.76c-4.168-4.56-5.339-11.111-3.008-16.832
	c4.642-13.432,4.956-27.981,0.896-41.6c-16.407,4.297-31.827,11.73-45.408,21.888c-3.871,2.693-8.752,3.493-13.28,2.176
	c-18.21-4.966-36.997-7.505-55.872-7.552c-18.823,0.013-37.559,2.542-55.712,7.52c-4.563,1.3-9.469,0.465-13.344-2.272
	c-13.564-10.217-29.036-17.616-45.504-21.76c-4.028,13.627-3.693,28.173,0.96,41.6c2.317,5.712,1.147,12.247-3.008,16.8
	c-13.49,14.632-20.835,33.893-20.512,53.792c0,81.024,45.728,97.376,95.136,103.04c8.778,1.014,15.072,8.952,14.058,17.73
	c-0.454,3.933-2.351,7.558-5.322,10.174c-5.894,6.033-9.425,13.982-9.952,22.4c-0.769,5.437-4.272,10.1-9.28,12.352
	c-17.931,8.772-38.646,9.926-57.44,3.2c14.522,7.124,31.203,8.484,46.688,3.808c4.723-0.979,9.637,0.193,13.408,3.2
	c3.77,3.01,5.98,7.56,6.016,12.384l0.352,41.024c0.306,15.16-11.735,27.699-26.895,28.005
	C185.148,506.719,184.705,506.717,184.262,506.705L184.262,506.705z M255.942,37.361c-124.1,0.37-224.403,101.273-224.033,225.373
	c0.282,94.478,59.632,178.689,148.513,210.723v-17.216c-34.359,5.788-68.015-13.527-80.352-46.112
	c-3.207-10.332-9.716-19.325-18.528-25.6c-6.816-4.48-21.984-14.88-17.184-30.016c3.2-9.6,11.52-14.688,26.272-14.88
	c21.153,2.393,39.921,14.668,50.592,33.088c7.461,15.614,25.846,22.648,41.824,16c0.73-2.817,1.606-5.594,2.624-8.32
	c-39.456-8.416-98.72-34.592-98.72-131.008c-0.378-24.59,7.611-48.578,22.656-68.032c-5.149-22.05-3.212-45.163,5.536-66.048
	c1.755-4.464,5.419-7.905,9.984-9.376c6.176-2.016,29.216-5.952,73.6,22.592c37.613-9.088,76.851-9.088,114.464,0
	c44.512-28.544,67.488-24.512,73.6-22.592c4.546,1.472,8.197,4.899,9.952,9.344c8.717,20.873,10.621,43.965,5.44,65.984
	c15.112,19.461,23.137,43.492,22.752,68.128c0,96.416-59.296,122.496-98.816,130.848c3.778,10.396,5.654,21.387,5.536,32.448
	c0,21.568,0,40.32-0.224,52.768v7.872c116.714-42.072,177.223-170.794,135.151-287.507
	C434.555,96.977,350.382,37.651,255.942,37.361z"/>
<g>
</g>
<g>
</g>
<g>
</g>
<g>
</g>
<g>
</g>
<g>
</g>
<g>
</g>
<g>
</g>
<g>
</g>
<g>
</g>
<g>
</g>
<g>
</g>
<g>
</g>
<g>
</g>
<g>
</g>
</svg>
