<svg height="512pt" viewBox="0 -63 512 512" width="512pt" xmlns="http://www.w3.org/2000/svg"><path d="m501.550781 324.375c0 28.496094-23.3125 51.808594-51.808593 51.808594h-387.484376c-28.496093 0-51.808593-23.3125-51.808593-51.808594v-262.117188c0-28.5 23.3125-51.808593 51.808593-51.808593h387.484376c28.496093 0 51.808593 23.308593 51.808593 51.808593zm0 0" fill="#fff"/><path d="m501.269531 329.753906v-267.496094c0-28.5-23.3125-51.808593-51.808593-51.808593l-193.601563 156.492187-137.378906-111.046875c-.257813 2.089844-.40625 4.207031-.40625 6.363281v73.800782l137.785156 110.992187 182.714844-147.1875v276.320313h11.167969c26.683593 0 48.816406-20.4375 51.527343-46.429688zm0 0" fill="#d50707"/><path d="m449.742188 0h-387.484376c-34.328124 0-62.257812 27.929688-62.257812 62.257812v262.117188c0 34.328125 27.929688 62.257812 62.257812 62.257812h387.484376c34.328124 0 62.257812-27.929687 62.257812-62.257812v-262.117188c0-34.328124-27.929688-62.257812-62.257812-62.257812zm-29.832032 20.898438-164.050781 132.609374-164.054687-132.609374zm8.214844 344.835937h-344.53125v-244.039063l165.710938 133.492188c3.824218 3.082031 9.285156 3.082031 13.109374 0l165.710938-133.492188zm62.976562-41.359375c0 22.804688-18.554687 41.359375-41.359374 41.359375h-.71875v-265.871094c0-4.023437-2.308594-7.6875-5.9375-9.425781-3.632813-1.738281-7.933594-1.234375-11.066407 1.289062l-176.160156 141.90625-176.160156-141.90625c-3.136719-2.523437-7.4375-3.027343-11.066407-1.289062-3.628906 1.734375-5.941406 5.402344-5.941406 9.425781v265.867188h-.433594c-22.804687.003906-41.359374-18.550781-41.359374-41.355469v-262.117188c0-21.628906 16.6875-39.417968 37.859374-41.199218l190.53125 154.011718c1.917969 1.546876 4.242188 2.320313 6.570313 2.320313s4.652344-.773437 6.566406-2.320313l190.558594-154.035156c21.292969 1.664063 38.117187 19.507813 38.117187 41.222656zm0 0"/><path d="m398.523438 200.425781c2.308593 0 4.632812-.761719 6.566406-2.328125l3.636718-2.941406c4.484376-3.632812 5.175782-10.210938 1.546876-14.695312-3.632813-4.488282-10.210938-5.179688-14.695313-1.546876l-3.636719 2.941407c-4.484375 3.628906-5.179687 10.210937-1.546875 14.695312 2.066407 2.550781 5.082031 3.875 8.128907 3.875zm0 0"/><path d="m297.539062 281.367188c2.308594 0 4.636719-.761719 6.570313-2.324219l74.707031-59.675781c4.484375-3.628907 5.175782-10.207032 1.546875-14.695313-3.628906-4.484375-10.210937-5.179687-14.695312-1.546875l-74.707031 59.671875c-4.488282 3.632813-5.179688 10.210937-1.546876 14.695313 2.0625 2.550781 5.082032 3.875 8.125 3.875zm0 0"/></svg>