<svg id="reg" enable-background="new 0 0 24 24" height="512" viewBox="0 0 24 24" width="512" xmlns="http://www.w3.org/2000/svg" xmlns:xlink="http://www.w3.org/1999/xlink"><linearGradient id="SVGID_1_" gradientTransform="matrix(0 -1.982 -1.844 0 -2.292 23.869)" gradientUnits="userSpaceOnUse" x1=".947" x2="11.036" y1="-2.332" y2="-13.176"><stop offset="0" stop-color="#fd5"/><stop offset=".5" stop-color="#ff543e"/><stop offset="1" stop-color="#c837ab"/></linearGradient><path d="m12.004.5c-6.055 0-7.213-.158-8.727.597-1.394.694-2.395 2.007-2.649 3.766-.078.537-.1.647-.105 3.395-.02 10.161-.154 10.92.576 12.434.607 1.263 1.767 2.212 3.134 2.566 1.093.282 1.82.242 7.747.242 4.968 0 6.513.089 7.802-.244 1.375-.356 2.514-1.29 3.134-2.571.736-1.522.563-2.598.563-8.692 0-5.836.197-7.135-.575-8.709-.264-.537-.557-.939-.982-1.349-1.728-1.654-3.786-1.43-6.181-1.435h-3.737z" fill="url(#SVGID_1_)"/><path d="m12 17.537c-3.053 0-5.537-2.484-5.537-5.537s2.484-5.537 5.537-5.537 5.537 2.484 5.537 5.537-2.484 5.537-5.537 5.537z" fill="#fff"/><path d="m18.359 6.514c-.481 0-.873-.391-.873-.873s.391-.873.873-.873.873.391.873.873-.392.873-.873.873z" fill="#fff"/><circle cx="12" cy="12" fill="none" r="3.5"/><path d="m4.75 24h14.5c2.619 0 4.75-2.131 4.75-4.75v-14.5c0-2.619-2.131-4.75-4.75-4.75h-14.5c-2.619 0-4.75 2.131-4.75 4.75v14.5c0 2.619 2.131 4.75 4.75 4.75zm-3.25-19.25c0-1.792 1.458-3.25 3.25-3.25h14.5c1.792 0 3.25 1.458 3.25 3.25v14.5c0 1.792-1.458 3.25-3.25 3.25h-14.5c-1.792 0-3.25-1.458-3.25-3.25z"/><path d="m12 18.13c3.38 0 6.13-2.75 6.13-6.13s-2.75-6.13-6.13-6.13-6.13 2.75-6.13 6.13 2.75 6.13 6.13 6.13zm0-10.76c2.553 0 4.63 2.077 4.63 4.63s-2.077 4.63-4.63 4.63-4.63-2.077-4.63-4.63 2.077-4.63 4.63-4.63z"/><path d="m18.358 7.362c.986 0 1.729-.74 1.729-1.721 0-1.023-.782-1.721-1.728-1.721-.986 0-1.729.74-1.729 1.721 0 1.021.778 1.721 1.728 1.721zm.177-1.886c.316.279-.405.618-.405.166 0-.27.367-.2.405-.166z"/></svg>