<svg height="512" viewBox="0 0 512 512" width="512" xmlns="http://www.w3.org/2000/svg"><g><g><path d="m232 288h48a0 0 0 0 1 0 0v192a16 16 0 0 1 -16 16h-16a16 16 0 0 1 -16-16v-192a0 0 0 0 1 0 0z" fill="#2d2d30"/><path d="m424 64v96h-264v24a16 16 0 0 1 -32 0v88a16 16 0 0 1 -32 0v-48a16 16 0 0 1 -32 0v-64h-24v-96z" fill="#ffda44"/><g fill="#c6c5ca"><path d="m16 88h24v48h-24z"/><path d="m424 88h24v48h-24z"/><path d="m240 264h32v24h-32z"/></g></g><g><path d="m472 104h-16v-16a8 8 0 0 0 -8-8h-16v-16a8 8 0 0 0 -8-8h-384a8 8 0 0 0 -8 8v16h-16a8 8 0 0 0 -8 8v48a8 8 0 0 0 8 8h16v16a8 8 0 0 0 8 8h16v56a24.006 24.006 0 0 0 32 22.63v25.37a24 24 0 0 0 48 0v-65.37a24.006 24.006 0 0 0 32-22.63v-16h256a8 8 0 0 0 8-8v-16h16a8 8 0 0 0 8-8v-16h16a16.021 16.021 0 0 1 16 16v64a16.021 16.021 0 0 1 -16 16h-216a8 8 0 0 0 -8 8v32h-8a8 8 0 0 0 -8 8v16a8 8 0 0 0 -8 8v192a24.032 24.032 0 0 0 24 24h16a24.032 24.032 0 0 0 24-24v-192a8 8 0 0 0 -8-8v-16a8 8 0 0 0 -8-8h-8v-24h208a32.036 32.036 0 0 0 32-32v-64a32.036 32.036 0 0 0 -32-32zm-440 24h-8v-32h8zm384 24h-256a8 8 0 0 0 -8 8v24a8 8 0 0 1 -16 0 8 8 0 0 0 -16 0v88a8 8 0 0 1 -16 0v-48a8 8 0 0 0 -16 0 8 8 0 0 1 -16 0v-64a8 8 0 0 0 -8-8h-16v-80h368zm24-24h-8v-32h8zm-192 144h16v8h-16zm24 24v184a8.011 8.011 0 0 1 -8 8h-16a8.011 8.011 0 0 1 -8-8v-184z"/><path d="m96 152a8 8 0 0 0 -8 8v40a8 8 0 0 0 16 0v-40a8 8 0 0 0 -8-8z"/><path d="m128 144a8 8 0 0 0 -8 8v8a8 8 0 0 0 16 0v-8a8 8 0 0 0 -8-8z"/></g></g></svg>