<?xml version="1.0" encoding="iso-8859-1"?>
<!-- Generator: Adobe Illustrator 19.0.0, SVG Export Plug-In . SVG Version: 6.00 Build 0)  -->
<svg version="1.1" id="Capa_1" xmlns="http://www.w3.org/2000/svg" xmlns:xlink="http://www.w3.org/1999/xlink" x="0px" y="0px"
	 viewBox="0 0 490.68 490.68" style="enable-background:new 0 0 490.68 490.68;" xml:space="preserve">
<path style="fill:#03A9F4;" d="M487.862,92.942c-3.262-3.567-8.514-4.494-12.8-2.261c-4.406,2.002-8.964,3.65-13.632,4.928
	c7.28-9.316,12.777-19.897,16.213-31.211c1.513-5.693-1.876-11.535-7.569-13.048c-3.04-0.808-6.281-0.233-8.857,1.571
	c-16.219,8.777-33.458,15.52-51.328,20.075c-36.787-34.722-92.823-39.05-134.507-10.389c-32.109,21.71-49.786,59.232-46.08,97.813
	c-69.603-5.931-133.642-40.422-176.896-95.275c-2.222-2.688-5.584-4.168-9.067-3.989c-3.532,0.212-6.728,2.162-8.533,5.205
	c-14.68,23.997-18.933,52.944-11.776,80.149c3.67,13.978,9.961,27.132,18.539,38.763c-3.864-1.892-7.5-4.218-10.837-6.933
	c-4.575-3.711-11.292-3.011-15.004,1.564c-1.54,1.899-2.382,4.269-2.383,6.714c0.634,39.467,22.306,75.588,56.832,94.72
	c-4.658-0.572-9.256-1.557-13.739-2.944c-5.641-1.697-11.59,1.5-13.287,7.141c-0.74,2.461-0.567,5.107,0.487,7.451
	c14.985,33.566,44.943,58.084,80.811,66.133c-34.173,19.28-73.523,27.381-112.533,23.168c-5.058-0.646-9.85,2.429-11.371,7.296
	c-1.568,4.829,0.484,10.093,4.907,12.587c47.765,28.38,102.102,43.82,157.653,44.8c53.294-0.195,105.345-16.113,149.632-45.76
	c84.544-56.107,137.237-156.843,129.899-246.976c18.077-13.381,33.758-29.725,46.379-48.341
	C491.608,101.812,491.136,96.499,487.862,92.942z"/>
<path d="M163.083,446.905c-55.552-0.976-109.89-16.417-157.653-44.8c-4.423-2.493-6.475-7.758-4.907-12.587
	c1.617-4.794,6.337-7.832,11.371-7.317c39.01,4.216,78.361-3.885,112.533-23.168c-35.867-8.05-65.826-32.567-80.811-66.133
	c-2.431-5.366-0.052-11.687,5.314-14.118c2.353-1.066,5.013-1.242,7.486-0.495c4.483,1.394,9.08,2.386,13.739,2.965
	c-34.497-19.12-56.164-55.199-56.832-94.635c0.003-5.891,4.782-10.664,10.673-10.66c2.445,0.001,4.815,0.843,6.714,2.383
	c3.335,2.718,6.971,5.045,10.837,6.933c-8.569-11.625-14.853-24.772-18.517-38.741c-7.129-27.217-2.845-56.164,11.861-80.149
	c1.805-3.043,5.002-4.993,8.533-5.205c3.499-0.27,6.901,1.227,9.067,3.989c43.246,54.83,107.255,89.317,176.832,95.275
	c-3.709-38.588,13.968-76.118,46.08-97.835c41.685-28.653,97.716-24.325,134.507,10.389c17.868-4.56,35.107-11.302,51.328-20.075
	c4.828-3.375,11.479-2.197,14.854,2.632c1.795,2.568,2.37,5.794,1.573,8.824c-3.434,11.321-8.931,21.909-16.213,31.232
	c4.666-1.282,9.225-2.93,13.632-4.928c5.241-2.691,11.67-0.624,14.361,4.616c1.725,3.36,1.545,7.381-0.473,10.573
	c-12.62,18.61-28.302,34.948-46.379,48.32c7.317,90.155-45.355,190.869-129.899,246.976
	C268.406,430.792,216.366,446.702,163.083,446.905z M56.523,403.321c79.467,35.863,171.794,28.327,244.395-19.947
	c80.128-53.184,129.429-149.056,119.893-233.152c-0.461-4.001,1.371-7.921,4.736-10.133c8.325-5.707,16.134-12.131,23.339-19.2
	c-7.625,1.794-15.405,2.852-23.232,3.157l0,0c-5.891,0.014-10.678-4.75-10.693-10.641c-0.011-4.387,2.666-8.334,6.746-9.946
	c8.441-4.478,15.74-10.835,21.333-18.581c-11.198,4.578-22.836,7.995-34.731,10.197c-3.208,0.44-6.443-0.587-8.811-2.795
	c-29.765-31.333-77.994-36.126-113.344-11.264c-37.227,21.76-38.059,72.533-34.133,88.469c0.807,3.277,0.016,6.742-2.133,9.344
	c-2.073,2.709-5.394,4.16-8.789,3.84c-74.637-2.679-144.938-35.741-194.603-91.52c-6.176,15.957-7.161,33.456-2.816,50.005
	c4.935,20.177,17.074,37.855,34.133,49.707c5.089,2.968,6.807,9.5,3.839,14.588c-1.534,2.63-4.119,4.479-7.103,5.081
	c-12.579,2.316-25.558,0.945-37.376-3.947c10.121,33.093,36.832,58.468,70.4,66.88c5.856,0.644,10.081,5.912,9.438,11.768
	c-0.299,2.719-1.631,5.219-3.72,6.984c-11.182,8.375-25.095,12.256-38.997,10.88c18.706,24.311,47.727,38.446,78.4,38.187
	c5.89,0.129,10.559,5.008,10.43,10.898c-0.065,2.947-1.346,5.736-3.54,7.705C130.386,384.408,94.466,399.547,56.523,403.321z"/>
<g>
</g>
<g>
</g>
<g>
</g>
<g>
</g>
<g>
</g>
<g>
</g>
<g>
</g>
<g>
</g>
<g>
</g>
<g>
</g>
<g>
</g>
<g>
</g>
<g>
</g>
<g>
</g>
<g>
</g>
</svg>
